# AST/ASF file generated using VICON BodyLanguage
# -----------------------------------------------
:version 1.10
:name VICON
:units
  mass 1.0
  length 0.45
  angle deg
:documentation
   .ast/.asf automatically generated from VICON data using
   VICON BodyBuilder and BodyLanguage model FoxedUp or BRILLIANT.MOD
:root
   order TX TY TZ RX RY RZ
   axis XYZ
   position 0 0 0  
   orientation 0 0 0 
:bonedata
  begin
     id 1 
     name lhipjoint
     direction 0.577973 -0.728611 0.367523 
     length 2.48544 
     axis 0 0 0  XYZ
  end
  begin
     id 2 
     name lfemur
     direction 0.34202 -0.939693 0  
     length 7.1921  
     axis 0 0 20  XYZ
    dof rx ry rz
    limits (-160.0 20.0)
           (-70.0 70.0)
           (-60.0 70.0)
  end
  begin
     id 3 
     name ltibia
     direction 0.34202 -0.939693 0   
     length 7.71059   
     axis 0 0 20   XYZ
    dof rx
    limits (-10.0 170.0)
  end
  begin
     id 4 
     name lfoot
     direction 0.089538 -0.246004 0.965124   
     length 2.19909   
     axis -90 7.62852e-016 20   XYZ
    dof rx rz
    limits (-45.0 90.0)
           (-70.0 20.0)
  end
  begin
     id 5 
     name ltoes
     direction 1.53544e-011 -4.21829e-011 1   
     length 1.10116   
     axis -90 7.62852e-016 20   XYZ
    dof rx
    limits (-90.0 20.0)
  end
  begin
     id 6 
     name rhipjoint
     direction -0.554414 -0.743062 0.374812   
     length 2.4371  
     axis 0 0 0  XYZ 
  end
  begin
     id 7 
     name rfemur
     direction -0.34202 -0.939693 0   
     length 7.47254   
     axis 0 0 -20   XYZ
    dof rx ry rz
    limits (-160.0 20.0)
           (-70.0 70.0)
           (-70.0 60.0)
  end
  begin
     id 8 
     name rtibia
     direction -0.34202 -0.939693 0   
     length 7.65855   
     axis 0 0 -20   XYZ
    dof rx
    limits (-10.0 170.0)
 end
 begin
     id 9 
     name rfoot
     direction -0.133779 -0.367555 0.92033   
     length 2.43006  
     axis -90 -7.62852e-016 -20   XYZ
    dof rx rz
    limits (-45.0 90.0)
           (-20.0 70.0)
  end
  begin
     id 10 
     name rtoes
     direction -1.53563e-011 -4.21889e-011 1   
     length 1.19625   
     axis -90 -7.62852e-016 -20   XYZ
    dof rx
    limits (-90.0 20.0)
  end
  begin
     id 11 
     name lowerback
     direction 0.0249066 0.998043 -0.0573585   
     length 2.08485   
     axis 0 0 0   XYZ
    dof rx ry rz
    limits (-20.0 45.0)
           (-30.0 30.0)
           (-30.0 30.0)
  end
  begin
     id 12 
     name upperback
     direction 0.0237884 0.999673 0.00943178   
     length 2.08515   
     axis 0 0 0   XYZ
    dof rx ry rz
    limits (-20.0 45.0)
           (-30.0 30.0)
           (-30.0 30.0)
  end
  begin
     id 13 
     name thorax
     direction 0.0106671 0.999301 0.0358174   
     length 2.09037   
     axis 0 0 0   XYZ
    dof rx ry rz
    limits (-20.0 45.0)
           (-30.0 30.0)
           (-30.0 30.0)
  end
  begin
     id 14 
     name lowerneck
     direction -0.0580016 0.987052 0.149546   
     length 1.84454   
     axis 0 0 0   XYZ
    dof rx ry rz
    limits (-20.0 45.0)
           (-30.0 30.0)
           (-30.0 30.0)
  end
  begin
     id 15 
     name upperneck
     direction 0.079456 0.981963 -0.171567   
     length 1.88141   
     axis 0 0 0   XYZ
    dof rx ry rz
    limits (-20.0 45.0)
           (-30.0 30.0)
           (-30.0 30.0)
  end
  begin
     id 16
     name head
     direction 0.0262167 0.9967 -0.0768276  
     length 1.89541  
     axis 0 0 0   XYZ
    dof rx ry rz
    limits (-20.0 45.0)
           (-30.0 30.0)
           (-30.0 30.0)
  end
  begin
     id 17 
     name lclavicle
     direction 0.946135 0.322134 -0.0325326  
     length 3.949  
     axis 0 0 0   XYZ
    dof ry rz
    limits (-20.0 10.0)
           (0.0 20.0)
  end
  begin
     id 18 
     name lhumerus
     direction 1 -4.48964e-011 1.94005e-028   
     length 5.10995   
     axis 180 -30 -90   XYZ
    dof rx ry rz
    limits (-60.0 90.0)
           (-90.0 90.0)
           (-90.0 90.0)
  end
  begin
     id 19
     name lradius
     direction 1 -4.48976e-011 2.87852e-027   
     length 3.21207   
     axis 180 -30 -90   XYZ
    dof rx
    limits (-10.0 170.0)
  end
  begin
     id 20
     name lwrist
     direction 1 -4.48963e-011 1.9975e-027   
     length 1.60604   
     axis 2.96054e-016 90 90   XYZ
    dof ry
    limits (-180.0 0.0)
 end
  begin
     id 21 
     name lhand
     direction 1 -4.48919e-011 4.00227e-027   
     length 0.63349   
     axis -2.5488e-015 90 90   XYZ
    dof rx rz
    limits (-90.0 90.0)
           (-45.0 45.0)
  end
  begin
     id 22 
     name lfingers
     direction 1 -4.49037e-011 7.9652e-027   
     length 0.510736   
     axis -5.0975e-015 90 90   XYZ
    dof rx
    limits (0.0 90.0)
  end
  begin
     id 23
     name lthumb
     direction 0.707107 -6.34922e-011 0.707107   
     length 0.733318   
     axis -90 45 -4.48553e-014   XYZ
    dof rx rz
    limits (-45.0 45.0)
           (-45.0 45.0)
  end
  begin
     id 24 
     name rclavicle
     direction -0.940085 0.328911 -0.0897654   
     length 3.93848  
     axis 0 0 0   XYZ 
    dof ry rz
    limits (-10.0 20.0)
           (-20.0 0.0)
  end
  begin
     id 25 
     name rhumerus
     direction -1 -4.48958e-011 3.02044e-027  
     length 5.25109   
     axis 180 30 90   XYZ
    dof rx ry rz
    limits (-90.0 60.0)
           (-90.0 90.0)
           (-90.0 90.0)
  end
  begin
     id 26 
     name rradius
     direction -1 -4.4897e-011 9.78352e-028   
     length 3.28364   
     axis 180 30 90   XYZ
    dof rx
    limits (-10.0 170.0)
  end
  begin
     id 27 
     name rwrist
     direction -1 -4.48943e-011 1.99918e-027   
     length 1.64182   
     axis 2.96054e-016 -90 -90   XYZ
    dof ry
    limits (-180.0 0.0)
  end
  begin
     id 28
     name rhand
     direction -1 -4.49024e-011 3.98478e-027   
     length 0.599745   
     axis -2.5488e-015 -90 -90   XYZ
    dof rx rz
    limits (-90.0 90.0)
           (-45.0 45.0)
  end
  begin
     id 29
     name rfingers
     direction -1 -4.48914e-011 8.00621e-027   
     length 0.48353   
     axis -5.0975e-015 -90 -90   XYZ
    dof rx
    limits (0.0 90.0)
  end
  begin
     id 30
     name rthumb
     direction -0.707107 -6.34992e-011 0.707107   
     length 0.694255   
     axis -90 -45 4.48553e-014   XYZ
    dof rx rz
    limits (-45.0 45.0)
           (-45.0 45.0)
  end
:hierarchy
  begin
    root lhipjoint rhipjoint lowerback
    lhipjoint lfemur
    lfemur ltibia
    ltibia lfoot
    lfoot ltoes
    rhipjoint rfemur
    rfemur rtibia
    rtibia rfoot
    rfoot rtoes
    lowerback upperback
    upperback thorax
    thorax lowerneck lclavicle rclavicle
    lowerneck upperneck
    upperneck head
    lclavicle lhumerus
    lhumerus lradius
    lradius lwrist
    lwrist lhand lthumb
    lhand lfingers
    rclavicle rhumerus
    rhumerus rradius
    rradius rwrist
    rwrist rhand rthumb
    rhand rfingers
  end

#!OML:ASF E:\CV Data\Top Level 1\Subject 1\Session 1\player.ASF
:FULLY-SPECIFIED
:DEGREES
233
root 5.23174 15.4041 16.3629 -1.80835 -3.87081 -5.54358
lowerback 7.18388 0.796353 2.55081
upperback 0.230398 1.38939 3.05565
thorax -3.80898 0.669698 1.58677
lowerneck -21.1734 -7.36158 -10.2219
upperneck 18.0447 -9.22625 9.73415
head 10.1984 -3.88661 3.70023
rclavicle 1.52381e-014 4.53229e-014
rhumerus 29.327 -0.988207 -66.31
rradius 77.6616
rwrist 13.0653
rhand 10.514 -7.61966
rfingers 7.12502
rthumb 35.6137 -34.0302
lclavicle 1.52381e-014 4.53229e-014
lhumerus 19.3503 3.98171 74.5001
lradius 85.2343
lwrist -27.7626
lhand 9.001 10.0234
lfingers 7.12502
lthumb 34.1782 36.7674
rfemur -23.1669 -8.08621 20.1432
rtibia 65.775
rfoot -36.1148 -5.83383
rtoes -12.9068
lfemur -22.862 10.9473 -8.53284
ltibia 63.9107
lfoot -32.8662 -0.145411
ltoes -13.8676
234
root 5.23296 15.4038 16.3642 -1.80342 -3.87255 -5.54852
lowerback 7.18123 0.796368 2.54705
upperback 0.226983 1.3892 3.0576
thorax -3.81117 0.669673 1.59095
lowerneck -21.1781 -7.36033 -10.2118
upperneck 18.0467 -9.2254 9.72586
head 10.1988 -3.88629 3.69567
rclavicle -1.19892e-014 3.97569e-016
rhumerus 29.3183 -0.985628 -66.3056
rradius 77.6759
rwrist 13.0762
rhand 10.5148 -7.61374
rfingers 7.12502
rthumb 35.6144 -34.0241
lclavicle -1.19892e-014 3.97569e-016
lhumerus 19.3412 4.00618 74.4974
lradius 85.2319
lwrist -27.7637
lhand 9.01971 10.0245
lfingers 7.12502
lthumb 34.196 36.7645
rfemur -23.1677 -8.08571 20.144
rtibia 65.7763
rfoot -36.1157 -5.83433
rtoes -12.9178
lfemur -22.8641 10.9463 -8.53285
ltibia 63.9161
lfoot -32.8686 -0.142007
ltoes -13.8586
235
root 5.23421 15.4038 16.3655 -1.79816 -3.87378 -5.55512
lowerback 7.17726 0.796722 2.54506
upperback 0.223026 1.38958 3.05975
thorax -3.81316 0.669898 1.5943
lowerneck -21.1798 -7.36036 -10.2022
upperneck 18.0479 -9.22642 9.71743
head 10.1987 -3.88696 3.69088
rclavicle 2.03754e-015 -2.28602e-014
rhumerus 29.3082 -0.988249 -66.3038
rradius 77.6894
rwrist 13.0815
rhand 10.5184 -7.61035
rfingers 7.12502
rthumb 35.6178 -34.0198
lclavicle 2.03754e-015 -2.28602e-014
lhumerus 19.3299 4.02772 74.4954
lradius 85.231
lwrist -27.7692
lhand 9.03969 10.0299
lfingers 7.12502
lthumb 34.215 36.7657
rfemur -23.1676 -8.08625 20.1462
rtibia 65.776
rfoot -36.1168 -5.83198
rtoes -12.9218
lfemur -22.8666 10.9442 -8.53158
ltibia 63.9208
lfoot -32.8707 -0.13808
ltoes -13.8524
236
root 5.23553 15.4038 16.3669 -1.7936 -3.87411 -5.56386
lowerback 7.17352 0.797031 2.54651
upperback 0.219355 1.39018 3.06191
thorax -3.81491 0.670173 1.5957
lowerneck -21.1762 -7.36152 -10.1958
upperneck 18.0449 -9.22911 9.713
head 10.1967 -3.8884 3.68782
rclavicle 2.49413e-014 1.86858e-014
rhumerus 29.298 -0.995774 -66.3041
rradius 77.7035
rwrist 13.0789
rhand 10.5256 -7.61126
rfingers 7.12502
rthumb 35.6247 -34.0191
lclavicle 2.49413e-014 1.86858e-014
lhumerus 19.3178 4.0468 74.4942
lradius 85.2312
lwrist -27.7802
lhand 9.05556 10.0385
lfingers 7.12502
lthumb 34.23 36.7709
rfemur -23.1661 -8.08899 20.15
rtibia 65.774
rfoot -36.1178 -5.82831
rtoes -12.9268
lfemur -22.8678 10.9415 -8.52824
ltibia 63.9242
lfoot -32.8724 -0.132008
ltoes -13.8536
237
root 5.23692 15.4039 16.3683 -1.7907 -3.87466 -5.57105
lowerback 7.16981 0.798057 2.54723
upperback 0.215862 1.39165 3.06351
thorax -3.81649 0.670889 1.59684
lowerneck -21.1641 -7.36312 -10.1949
upperneck 18.0352 -9.23257 9.71532
head 10.1915 -3.89013 3.68804
rclavicle 1.45423e-014 -5.96354e-015
rhumerus 29.2874 -1.00738 -66.3074
rradius 77.7146
rwrist 13.0753
rhand 10.5307 -7.61166
rfingers 7.12502
rthumb 35.6295 -34.0183
lclavicle 1.45423e-014 -5.96354e-015
lhumerus 19.3031 4.06219 74.4945
lradius 85.2321
lwrist -27.7951
lhand 9.06545 10.0481
lfingers 7.12502
lthumb 34.2394 36.7784
rfemur -23.1618 -8.09296 20.1509
rtibia 65.7711
rfoot -36.1198 -5.82176
rtoes -12.9302
lfemur -22.8663 10.9385 -8.52677
ltibia 63.9267
lfoot -32.8753 -0.123975
ltoes -13.8608
238
root 5.23833 15.4039 16.3698 -1.79046 -3.87537 -5.57688
lowerback 7.16799 0.799962 2.54711
upperback 0.213515 1.39423 3.06425
thorax -3.81795 0.672164 1.59742
lowerneck -21.1427 -7.36652 -10.1973
upperneck 18.0191 -9.23851 9.7204
head 10.183 -3.89328 3.68948
rclavicle -7.37367e-015 -2.78299e-014
rhumerus 29.2775 -1.02398 -66.3131
rradius 77.7228
rwrist 13.0738
rhand 10.5354 -7.61033
rfingers 7.12502
rthumb 35.634 -34.0159
lclavicle -7.37367e-015 -2.78299e-014
lhumerus 19.2895 4.07375 74.4965
lradius 85.2338
lwrist -27.8108
lhand 9.07426 10.0569
lfingers 7.12502
lthumb 34.2478 36.7853
rfemur -23.1538 -8.09712 20.1493
rtibia 65.7679
rfoot -36.1247 -5.81422
rtoes -12.9314
lfemur -22.8608 10.9364 -8.52607
ltibia 63.929
lfoot -32.8805 -0.114527
ltoes -13.8748
239
root 5.23977 15.4038 16.3713 -1.79092 -3.87677 -5.58375
lowerback 7.16641 0.80244 2.54832
upperback 0.211895 1.39765 3.06492
thorax -3.81878 0.673841 1.59711
lowerneck -21.1162 -7.37008 -10.2013
upperneck 17.9986 -9.24482 9.72742
head 10.1722 -3.89668 3.69185
rclavicle 1.61016e-014 6.16232e-015
rhumerus 29.27 -1.04268 -66.3205
rradius 77.727
rwrist 13.0802
rhand 10.5382 -7.60786
rfingers 7.12502
rthumb 35.6366 -34.0128
lclavicle 1.61016e-014 6.16232e-015
lhumerus 19.2766 4.08163 74.4984
lradius 85.2364
lwrist -27.8238
lhand 9.08231 10.0625
lfingers 7.12502
lthumb 34.2554 36.7892
rfemur -23.1454 -8.10048 20.1487
rtibia 65.7653
rfoot -36.1294 -5.80766
rtoes -12.933
lfemur -22.8548 10.9363 -8.5237
ltibia 63.9327
lfoot -32.8876 -0.106302
ltoes -13.8851
240
root 5.24127 15.4033 16.3728 -1.79229 -3.87711 -5.58821
lowerback 7.1648 0.804746 2.54768
upperback 0.210864 1.40063 3.06468
thorax -3.81898 0.67533 1.59692
lowerneck -21.0893 -7.37286 -10.2033
upperneck 17.9759 -9.25004 9.73275
head 10.1602 -3.89968 3.69346
rclavicle -6.08778e-016 -2.92213e-014
rhumerus 29.2642 -1.06229 -66.3295
rradius 77.7271
rwrist 13.0943
rhand 10.5389 -7.60248
rfingers 7.12502
rthumb 35.6373 -34.0073
lclavicle -6.08778e-016 -2.92213e-014
lhumerus 19.2625 4.08601 74.4993
lradius 85.2407
lwrist -27.8317
lhand 9.08922 10.0661
lfingers 7.12502
lthumb 34.262 36.7913
rfemur -23.1364 -8.10533 20.1448
rtibia 65.7641
rfoot -36.1354 -5.80275
rtoes -12.9359
lfemur -22.849 10.935 -8.52419
ltibia 63.9384
lfoot -32.8959 -0.0966873
ltoes -13.8937
241
root 5.24277 15.4029 16.3742 -1.79267 -3.87652 -5.59235
lowerback 7.16335 0.806789 2.54625
upperback 0.209552 1.40322 3.06432
thorax -3.81958 0.676632 1.59709
lowerneck -21.0595 -7.37543 -10.2049
upperneck 17.9517 -9.25494 9.73681
head 10.1471 -3.90275 3.69467
rclavicle -1.82012e-014 -4.17448e-014
rhumerus 29.2609 -1.08101 -66.3388
rradius 77.7238
rwrist 13.1128
rhand 10.5393 -7.59693
rfingers 7.12502
rthumb 35.6377 -34.0016
lclavicle -1.82012e-014 -4.17448e-014
lhumerus 19.2447 4.08666 74.4973
lradius 85.2483
lwrist -27.8305
lhand 9.09579 10.0654
lfingers 7.12502
lthumb 34.2682 36.7892
rfemur -23.129 -8.10958 20.1409
rtibia 65.7632
rfoot -36.1403 -5.79892
rtoes -12.9372
lfemur -22.8455 10.9339 -8.52518
ltibia 63.9456
lfoot -32.9042 -0.0880285
ltoes -13.9031
242
root 5.24431 15.4025 16.3757 -1.79174 -3.8746 -5.59781
lowerback 7.16122 0.80817 2.54605
upperback 0.208752 1.40498 3.06428
thorax -3.81924 0.677512 1.59701
lowerneck -21.0362 -7.37747 -10.2058
upperneck 17.9317 -9.259 9.74068
head 10.1364 -3.90516 3.69574
rclavicle -1.58158e-014 1.05356e-014
rhumerus 29.2605 -1.09832 -66.3472
rradius 77.7177
rwrist 13.1292
rhand 10.5384 -7.59
rfingers 7.12502
rthumb 35.6368 -33.9949
lclavicle -1.58158e-014 1.05356e-014
lhumerus 19.2252 4.08456 74.4926
lradius 85.2578
lwrist -27.8216
lhand 9.10036 10.0604
lfingers 7.12502
lthumb 34.2726 36.7833
rfemur -23.1234 -8.11372 20.1389
rtibia 65.7625
rfoot -36.1439 -5.79785
rtoes -12.9418
lfemur -22.8444 10.9322 -8.5251
ltibia 63.9539
lfoot -32.9116 -0.0814428
ltoes -13.9075
